<svg id="workspace" xmlns="http://www.w3.org/2000/svg" xmlns:xlink="http://www.w3.org/1999/xlink" style="text-rendering: geometricprecision; cursor: auto;"><desc>Created with Snap</desc><defs><linearGradient x1="0" y1="0.5" x2="1" y2="0.5" id="linearGradientSjvro7ztx1c"><stop offset="0%" stop-color="#ffc04a"></stop><stop offset="100%" stop-color="#ff6347"></stop></linearGradient><linearGradient x1="0" y1="0.5" x2="1" y2="0.5" id="linearGradientSjvro7ztx1m"><stop offset="0%" stop-color="#ffc04a"></stop><stop offset="100%" stop-color="#ff6347"></stop></linearGradient><linearGradient x1="0" y1="0.5" x2="1" y2="0.5" id="linearGradientSjvro7ztx1s"><stop offset="0%" stop-color="#ffc04a"></stop><stop offset="100%" stop-color="#ff6347"></stop></linearGradient><linearGradient x1="0" y1="0.5" x2="1" y2="0.5" id="linearGradientSjvro7ztx1y"><stop offset="0%" stop-color="#ffc04a"></stop><stop offset="100%" stop-color="#ff6347"></stop></linearGradient><linearGradient x1="0" y1="0.5" x2="1" y2="0.5" id="linearGradientSjvro7ztx21"><stop offset="0%" stop-color="#ffc04a"></stop><stop offset="100%" stop-color="#ff6347"></stop></linearGradient><linearGradient x1="0" y1="0.5" x2="1" y2="0.5" id="linearGradientSjvro7ztx2b"><stop offset="0%" stop-color="#3a3a3a"></stop><stop offset="100%" stop-color="#3a3a3a"></stop></linearGradient><linearGradient x1="0" y1="0.5" x2="1" y2="0.5" id="linearGradientSjvro7ztx2q"><stop offset="0%" stop-color="#ffc04a"></stop><stop offset="100%" stop-color="#ff6347"></stop></linearGradient><linearGradient x1="0" y1="0.5" x2="1" y2="0.5" id="linearGradientSjvro7ztx2x"><stop offset="0%" stop-color="#ffc04a"></stop><stop offset="100%" stop-color="#ff6347"></stop></linearGradient><linearGradient x1="0" y1="0.5" x2="1" y2="0.5" id="linearGradientSjvro7ztx30"><stop offset="0%" stop-color="#ffc04a"></stop><stop offset="100%" stop-color="#ff6347"></stop></linearGradient></defs><g class="background-part"><rect x="0" y="0" width="1145" height="671" fill="rgba(255,255,255,0.25)" style=""></rect></g><g class="selector-part"><rect x="0" y="0" width="1145" height="671" fill="rgba(255,255,255,0)" style="transition: all 0.6s ease 0s;"></rect></g><g class="selector-part" transform="matrix(1,0,0,1,349,151)"><rect x="0" y="0" width="0" height="0" fill="rgba(255,255,255,0)" style="cursor: move;"></rect></g><g class="svg-clip svg-visible" transform="matrix(3.6289,0,0,3.6289,354.2244,156.4315)" style="cursor: move; opacity: 1;"><rect x="0" y="0" width="109" height="67" fill="none" class="svg-hitbox" style=""></rect><svg width="109.999" height="67.98799999999999" viewBox="-4.624,14.508999999999997,109.999,67.98799999999999"><desc>Created with Snap</desc><defs></defs><g></g><g></g><g><path fill="url('#linearGradientSjvro7ztx30')" d="M96.897,37.513c1.921,0,3.478-1.558,3.478-3.479c0-1.92-1.557-3.478-3.478-3.478s-3.478,1.558-3.478,3.478  c0,0.422,0.079,0.825,0.217,1.2l-10.153,8.649l-12.864-7.567c0.073-0.297,0.116-0.607,0.116-0.927c0-2.142-1.736-3.878-3.878-3.878  c-0.869,0-1.668,0.289-2.314,0.772L52.92,23.054c0.054-0.22,0.086-0.448,0.086-0.684c0-1.581-1.281-2.861-2.861-2.861  s-2.861,1.281-2.861,2.861c0,0.729,0.275,1.393,0.724,1.898l-5.835,12.488c-0.26-0.045-0.526-0.074-0.8-0.074  c-0.86,0-1.662,0.239-2.351,0.647l-15.438-6.915c0.036-0.225,0.06-0.454,0.06-0.689c0-2.38-1.929-4.309-4.309-4.309  c-2.379,0-4.309,1.929-4.309,4.309s1.929,4.309,4.309,4.309c1.352,0,2.556-0.623,3.346-1.596l14.682,6.576  c-0.384,0.674-0.607,1.452-0.607,2.284c0,0.852,0.293,1.605,0.694,2.29l-8.233,8.237c-1.136-0.811-2.506-1.294-4.003-1.294  c-2.642,0-4.915,1.501-6.082,3.684l-0.096-0.032c-0.001,0.012-0.004,0.023-0.005,0.035L7.553,49.002  c0.016-0.134,0.025-0.271,0.025-0.409c0-1.989-1.612-3.601-3.601-3.601s-3.601,1.612-3.601,3.601s1.612,3.601,3.601,3.601  c1.054,0,1.999-0.455,2.657-1.177l11.723,5.329c-0.005,0.013-0.009,0.025-0.015,0.037l0.056,0.019  c-0.054,0.348-0.108,0.694-0.108,1.055c0,1.954,0.813,3.716,2.115,4.975l-0.017,0.013c0.004,0.005,0.008,0.01,0.012,0.014  l-5.973,8.802c-0.155-0.027-0.314-0.044-0.478-0.044c-1.479,0-2.678,1.198-2.678,2.678c0,1.479,1.199,2.678,2.678,2.678  c1.479,0,2.678-1.199,2.678-2.678c0-0.501-0.14-0.969-0.38-1.37l5.364-7.904l0.71-0.877c0.881,0.407,1.859,0.641,2.894,0.641  c1.902,0,3.629-0.771,4.883-2.016l6.993,4.991c-0.199,0.514-0.334,1.06-0.334,1.641c0,2.548,2.065,4.617,4.617,4.617  c2.159,0,3.965-1.483,4.471-3.482l15.916-4.923c0.977,1.815,2.893,3.05,5.099,3.05c1.273,0,2.447-0.417,3.403-1.114l7.12,6.611  c-0.038,0.193-0.059,0.393-0.059,0.597c0,1.734,1.406,3.14,3.14,3.14s3.139-1.405,3.139-3.14c0-1.733-1.405-3.139-3.139-3.139  c-0.707,0-1.358,0.236-1.883,0.631l-6.811-6.323c0.552-0.887,0.893-1.93,0.893-3.05c0-2.815-1.661-5.16-4.661-5.677V39.104  c1-0.172,1.082-0.478,1.513-0.878l13.332,7.848l11.179,15.655c-0.092,0.23-0.146,0.481-0.146,0.745c0,1.125,0.91,2.037,2.035,2.037  s2.037-0.912,2.037-2.037s-0.913-2.037-2.038-2.037c-0.03,0-0.06,0.003-0.09,0.005L85.094,45.422l9.931-8.459  C95.565,37.31,96.207,37.513,96.897,37.513z M61.07,62.474c0,0.21,0.013,0.416,0.035,0.62l-15.275,4.724  c-0.522-1.975-2.316-3.435-4.458-3.435c-1.123,0-2.114,0.451-2.913,1.113l-7.038-5.022c0.447-0.92,0.717-1.93,0.717-3.017  c0-1.492-0.487-2.871-1.29-3.999l8.233-8.237c0.686,0.401,1.438,0.694,2.291,0.694c1.642,0,3.079-0.857,3.897-2.147l17.222,14.914  C61.609,59.699,61.07,61.022,61.07,62.474z M66,56.797c-1,0.1-1.135,0.273-1.596,0.502l-18.36-15.846  c0.002-0.052-0.023-0.102-0.023-0.154c0-1.485-0.718-2.802-1.806-3.646l5.799-12.428c0.046,0.002,0.088,0.007,0.134,0.007  c0.53,0,1.023-0.147,1.449-0.399l11.621,9.229c-0.151,0.415-0.113,0.861-0.113,1.328c0,1.757,0.895,3.238,2.895,3.715V56.797z" stroke="none" style=""></path></g></svg></g><g class="svg-text svg-visible" transform="matrix(1.0872,0,0,1.0872,553,383)" style="pointer-events: fill; cursor: move; opacity: 1;"><path fill="none" style="" d="M-185.95000000000002,101.9 C-20,100.9 20,100.9 185.95000000000002,101.9"></path><path d="M-161.55-13L-123.45000000000002-13L-123.45000000000002 0L-177.65 0L-177.65-70L-124.75000000000001-70L-124.75000000000001-57L-161.55-57L-161.55-41.8L-129.05-41.8L-129.05-29.2L-161.55-29.2L-161.55-13ZM-78.94999999999999-54.6Q-68.94999999999999-54.6 -62.8-48.6Q-56.64999999999999-42.6 -56.64999999999999-30.8L-56.64999999999999-30.8L-56.64999999999999 0L-72.25 0L-72.25-28.4Q-72.25-34.8 -75.05-37.95Q-77.85-41.1 -83.14999999999999-41.1L-83.14999999999999-41.1Q-89.05-41.1 -92.55-37.45Q-96.05-33.8 -96.05-26.6L-96.05-26.6L-96.05 0L-111.64999999999999 0L-111.64999999999999-53.8L-96.75-53.8L-96.75-47.5Q-93.64999999999999-50.9 -89.05-52.75Q-84.44999999999999-54.6 -78.94999999999999-54.6L-78.94999999999999-54.6ZM 10.75-26.7Q 10.75-26.4  10.450000000000003-22.5L 10.450000000000003-22.5L-30.25-22.5Q-29.15-17.5 -25.049999999999997-14.6Q-20.95-11.7 -14.850000000000001-11.7L-14.850000000000001-11.7Q-10.649999999999999-11.7 -7.399999999999999-12.95Q-4.149999999999999-14.2 -1.3500000000000014-16.9L-1.3500000000000014-16.9L 6.950000000000003-7.9Q-0.6499999999999986 0.8 -15.25 0.8L-15.25 0.8Q-24.349999999999998 0.8 -31.349999999999998-2.75Q-38.349999999999994-6.3 -42.15-12.6Q-45.949999999999996-18.9 -45.949999999999996-26.9L-45.949999999999996-26.9Q-45.949999999999996-34.8 -42.199999999999996-41.15Q-38.45-47.5 -31.9-51.05Q-25.349999999999998-54.6 -17.25-54.6L-17.25-54.6Q-9.350000000000001-54.6 -2.9499999999999957-51.2Q 3.450000000000003-47.8  7.100000000000001-41.45Q 10.75-35.1  10.75-26.7L 10.75-26.7ZM-17.15-42.8Q-22.45-42.8 -26.049999999999997-39.8Q-29.65-36.8 -30.45-31.6L-30.45-31.6L-3.9499999999999957-31.6Q-4.75-36.7 -8.350000000000001-39.75Q-11.949999999999996-42.8 -17.15-42.8L-17.15-42.8ZM 36.050000000000004-46.7Q 38.85-50.6  43.6-52.6Q 48.35-54.6  54.550000000000004-54.6L 54.550000000000004-54.6L 54.550000000000004-40.2Q 51.95-40.4  51.050000000000004-40.4L 51.050000000000004-40.4Q 44.35-40.4  40.550000000000004-36.65Q 36.75-32.9  36.75-25.4L 36.75-25.4L 36.75 0L 21.150000000000002 0L 21.150000000000002-53.8L 36.050000000000004-53.8L 36.050000000000004-46.7ZM 104.04999999999998-53.8L 118.85-53.8L 118.85-9Q 118.85 5.8  111.14999999999999 13Q 103.44999999999999 20.2  88.64999999999999 20.2L 88.64999999999999 20.2Q 80.85 20.2  73.85 18.3Q 66.85 16.4  62.24999999999999 12.8L 62.24999999999999 12.8L 68.44999999999999 1.6Q 71.85 4.4  77.04999999999998 6.05Q 82.25 7.7  87.44999999999999 7.7L 87.44999999999999 7.7Q 95.54999999999998 7.7  99.39999999999999 4.05Q 103.25 0.4  103.25-7L 103.25-7L 103.25-9.3Q 97.14999999999999-2.6  86.25-2.6L 86.25-2.6Q 78.85-2.6  72.69999999999999-5.85Q 66.55-9.1  62.94999999999999-15Q 59.349999999999994-20.9  59.349999999999994-28.6L 59.349999999999994-28.6Q 59.349999999999994-36.3  62.94999999999999-42.2Q 66.55-48.1  72.69999999999999-51.35Q 78.85-54.6  86.25-54.6L 86.25-54.6Q 97.94999999999999-54.6  104.04999999999998-46.9L 104.04999999999998-46.9L 104.04999999999998-53.8ZM 89.35-15.4Q 95.54999999999998-15.4  99.5-19.05Q 103.44999999999999-22.7  103.44999999999999-28.6L 103.44999999999999-28.6Q 103.44999999999999-34.5  99.5-38.15Q 95.54999999999998-41.8  89.35-41.8L 89.35-41.8Q 83.14999999999999-41.8  79.14999999999999-38.15Q 75.14999999999999-34.5  75.14999999999999-28.6L 75.14999999999999-28.6Q 75.14999999999999-22.7  79.14999999999999-19.05Q 83.14999999999999-15.4  89.35-15.4L 89.35-15.4ZM 171.75-53.8L 186.75-53.8L 162.45 3.3Q 158.75 12.6  153.3 16.4Q 147.85 20.2  140.15 20.2L 140.15 20.2Q 135.95000000000002 20.2  131.85 18.9Q 127.75 17.6 125.15 15.3L 125.15 15.3L 130.85 4.2Q 132.65 5.8  135 6.7Q 137.35 7.6  139.65 7.6L 139.65 7.6Q 142.85 7.6  144.85 6.05Q 146.85 4.5  148.45000000000002 0.9L 148.45000000000002 0.9L 148.65 0.4L 125.35000000000001-53.8L 141.45000000000002-53.8L 156.55-17.3L 171.75-53.8Z" data-textpath="Energy" data-text-anchor="middle" data-font-size="100" data-letterspacing="0" data-side="left" data-offset="0" data-dx="0" data-dy="91.42500000000001" data-href="" data-font="Montserrat" data-font-src="/Content/clientfonts/montserrat-bold.woff" data-font-scale="contain" transform="translate(0,91.42500000000001)" data-xmlspace="preserve" fill="url('#linearGradientSjvro7ztx2b')"></path><rect x="0" y="0" width="0" height="0"></rect></g><g><rect x="0" y="0" width="0" height="0" fill="rgba(255,136,0,0.1)" stroke="#ff8800" style="stroke-width: 1;"></rect></g><g class="selector-part"><rect x="0" y="0" width="0" height="0" fill="rgba(168,202,236,0.5)" stroke="#3399ff" style="stroke-width: 1;"></rect></g><g class="selector-part" transform="matrix(1,0,0,1,349,151)"><rect x="0" y="0" width="0" height="0" fill="none" stroke="#2390bb" style="stroke-width: 2;"></rect><g transform="matrix(0.5,0,0,0.5,0,0)"><svg version="1.1" id="Calque_1" xmlns="http://www.w3.org/2000/svg" xmlns:xlink="http://www.w3.org/1999/xlink" x="390.5" y="-71px" width="28.94px" height="30px" viewBox="0 -15 28.94 30" enable-background="new 0 -15 28.94 30" xml:space="preserve" style="cursor: pointer;">
<g>
	<path fill="rgba(0,0,0,0)" d="M23.355-9.979c-0.352-0.263-0.712-0.511-1.084-0.739L20.34-7.486c0.317,0.195,0.629,0.414,0.929,0.646
		L23.355-9.979z" style=""></path>
	<path fill="rgba(0,0,0,0)" d="M28.894,0.081L25.092-0.13c0.292,2.317-0.217,4.718-1.539,6.756l-0.037-0.021
		c-0.376,0.583-0.821,1.137-1.335,1.648c-3.808,3.809-9.902,3.942-13.871,0.396C8.282,8.623,8.255,8.602,8.227,8.576
		C8.143,8.498,8.059,8.421,7.976,8.339c-0.052-0.051-0.104-0.1-0.153-0.152C7.8,8.163,7.776,8.14,7.753,8.115
		c-0.084-0.091-0.167-0.18-0.25-0.271v0.002C4.312,4.293,4.087-0.98,6.821-4.782l4.123,4.124l3.401-14.306L0.037-11.566l4.102,4.098
		C-0.064-2.14,0.193,5.554,4.917,10.587l0,0c0.012,0.016,0.023,0.025,0.033,0.037c0.091,0.098,0.181,0.199,0.278,0.293
		c0.021,0.023,0.047,0.043,0.07,0.068c0.075,0.074,0.148,0.146,0.225,0.22c0.051,0.045,0.099,0.086,0.15,0.133
		c0.053,0.047,0.104,0.094,0.156,0.14c0.144,0.13,0.291,0.257,0.439,0.375c0.01,0.012,0.018,0.016,0.027,0.023
		c5.574,4.563,13.804,4.115,18.842-1.194C27.94,7.722,29.185,3.851,28.894,0.081z" style=""></path>
	<path fill="rgba(0,0,0,0)" d="M24.122-3.353l3.544-1.319c-0.426-0.932-0.962-1.826-1.611-2.662L22.88-5.276
		C23.373-4.675,23.79-4.027,24.122-3.353z" style=""></path>
</g>
<desc>Created with Snap</desc><defs></defs><circle cx="14.5" cy="0" r="15" style="" fill="rgba(0,0,0,0)"></circle></svg></g><rect x="202.5" y="-21" width="0" height="21" fill="rgba(255,255,255,0)" stroke="#2390bb" style="stroke-width: 1; cursor: pointer;"></rect><circle cx="405" cy="253" r="0" fill="#ffffff" stroke="#2390bb" style="stroke-width: 2; cursor: se-resize;"></circle><circle cx="0" cy="253" r="0" fill="#ffffff" stroke="#2390bb" style="stroke-width: 2; cursor: sw-resize;"></circle><circle cx="405" cy="0" r="0" fill="#ffffff" stroke="#2390bb" style="stroke-width: 2; cursor: ne-resize;"></circle><circle cx="0" cy="0" r="0" fill="#ffffff" stroke="#2390bb" style="stroke-width: 2; cursor: nw-resize;"></circle><circle cx="203" cy="253" r="0" fill="#ffffff" stroke="#2390bb" style="stroke-width: 2; cursor: s-resize;"></circle><circle cx="203" cy="0" r="0" fill="#ffffff" stroke="#2390bb" style="stroke-width: 2; cursor: n-resize;"></circle><circle cx="0" cy="127" r="0" fill="#ffffff" stroke="#2390bb" style="stroke-width: 2; cursor: w-resize;"></circle><circle cx="405" cy="127" r="0" fill="#ffffff" stroke="#2390bb" style="stroke-width: 2; cursor: e-resize;"></circle><path stroke="#ff0000" fill="none" style="stroke-width: 3;"></path><line x1="0" x2="0" y1="0" y2="0" fill="rgba(255,255,255,0)" stroke="#2390bb" style="stroke-width: 1;"></line><line x1="0" x2="0" y1="0" y2="0" fill="rgba(255,255,255,0)" stroke="#2390bb" style="stroke-width: 1;"></line><circle cx="0" cy="0" r="0" fill="#ff0000" stroke="#2390bb" style="stroke-width: 2; cursor: pointer;"></circle><circle cx="0" cy="0" r="0" fill="#ffa500" stroke="#2390bb" style="stroke-width: 2; cursor: pointer;"></circle><circle cx="0" cy="0" r="0" fill="#ffa500" stroke="#2390bb" style="stroke-width: 2; cursor: pointer;"></circle><circle cx="0" cy="0" r="0" fill="#ff0000" stroke="#2390bb" style="stroke-width: 2; cursor: pointer;"></circle><g style="cursor: pointer; visibility: hidden; opacity: 0;" transform="matrix(1,0,0,1,-50,-15)"><rect x="0" y="0" width="30" height="30" fill="#2390bb" rx="5" ry="5" style=""></rect><rect x="6" y="6" width="18" height="4" style="" fill="#ffffff"></rect><rect x="6" y="13" width="18" height="4" fill="#ffffff" style=""></rect><rect x="6" y="20" width="18" height="4" fill="#ffffff" style=""></rect></g></g></svg>